<?xml version="1.0" encoding="UTF-8"?>
<svg xmlns="http://www.w3.org/2000/svg" viewBox="0 0 1047 1146" width="1047" height="1146">
<path d="M270.88 195.17C271.01 207.61 271.14 220.06 271.28 232.5C253.54 232.66 235.8 232.83 218.06 232.99C218.03 220.49 218.01 208 217.99 195.5C235.62 195.39 253.25 195.28 270.88 195.17ZM276.43 195.2C290.12 195.24 303.81 195.27 317.5 195.31C319.24 210.88 314.84 219.2 325.17 232.95C308.95 233.02 292.72 233.08 276.5 233.15C276.48 220.5 276.46 207.85 276.43 195.2ZM736 195.19C736.06 207.63 736.12 220.06 736.18 232.5C722.12 232.6 708.07 232.71 694.01 232.81C704.55 218.05 699.49 211.55 701.5 195.32C713 195.28 724.5 195.23 736 195.19ZM741.16 195.19C764.15 195.29 787.14 195.4 810.13 195.5C810.08 208.26 810.03 221.02 809.98 233.78C787.15 233.59 764.33 233.41 741.5 233.22C741.39 220.55 741.27 207.87 741.16 195.19ZM218.11 237.3C220.91 237.96 224.07 237.69 227 237.7C237.51 237.76 247.99 237.69 258.5 237.63C262.91 237.61 267.3 237.21 271.44 238.5C271.43 262.17 271.42 285.83 271.41 309.5C265.32 311.24 257.9 310.13 251.5 310.12C240.48 310.1 228.99 311.12 218.04 310.03C218.06 285.78 218.08 261.54 218.11 237.3ZM331 237.17C337.51 239.77 343.12 239.62 350 240.21C347.44 244.45 348.89 255.29 348.87 260.5C348.82 276.8 349.73 293.47 348.5 309.71C324.5 309.89 300.5 310.07 276.5 310.24C276.5 286.09 276.5 261.93 276.5 237.78C294.67 237.57 312.83 237.37 331 237.17ZM688 237.23C703.83 237.37 719.67 237.51 735.5 237.65C735.5 261.86 735.5 286.08 735.5 310.29C718.83 310.28 702.17 310.11 685.5 310.15C680.58 310.16 667.24 311.38 663.41 309.5C663.66 286.37 663.91 263.25 664.16 240.12C672.52 239.66 680.16 240.68 688 237.23ZM809.99 237.15C809.98 261.71 809.98 286.27 809.97 310.83C787.15 310.66 764.32 310.5 741.5 310.34C740.22 305.3 740.8 299.76 740.86 294.5C740.94 286.17 740.99 277.83 740.95 269.5C740.9 260.21 739.29 246.12 741.5 237.55C764.33 237.42 787.16 237.29 809.99 237.15ZM354.11 240.09C377.94 240.11 401.78 240.12 425.62 240.14C425.58 263.46 425.54 286.78 425.5 310.1C401.58 309.9 377.66 309.7 353.74 309.5C353.86 286.36 353.98 263.23 354.11 240.09ZM431.14 240.13C455.76 240.16 480.38 240.2 505 240.23C502.44 244.31 503.81 255.41 503.86 260.5C503.95 270.5 503.95 280.5 503.94 290.5C503.94 296.92 504.34 303.56 503.5 309.91C479.5 309.99 455.5 310.06 431.5 310.14C431.38 286.8 431.26 263.47 431.14 240.13ZM509.14 240.12C533.04 240.12 556.95 240.12 580.85 240.12C581.05 263.25 581.25 286.37 581.46 309.5C573.91 311.27 565.31 309.86 557.5 310.12C547.2 310.48 536.83 310.21 526.5 310.23C520.58 310.24 514.31 310.8 508.57 309.5C508.76 286.37 508.95 263.24 509.14 240.12ZM584 240.23C608.62 240.19 633.25 240.14 657.87 240.09C660.15 245.45 658.65 256.41 658.63 262.5C658.61 272.83 658.62 283.17 658.6 293.5C658.59 298.98 659.07 304.62 658.5 310.04C634.5 310.08 610.5 310.12 586.5 310.16C585.45 304.48 586.08 298.32 586.1 292.5C586.14 281.17 586.09 269.83 586.08 258.5C586.07 254.84 587.29 244.61 585.88 241.72C585.62 241.19 584.47 240.56 584 240.23ZM809.97 314.25C809.96 338.77 809.95 363.3 809.94 387.82C787.12 387.7 764.31 387.58 741.5 387.45C741.5 363.24 741.5 339.03 741.5 314.82C764.32 314.63 787.14 314.44 809.97 314.25ZM218.06 315.04C235.79 315.19 253.51 315.35 271.24 315.5C270.99 339.4 270.75 363.3 270.5 387.2C253.04 387.36 235.57 387.53 218.11 387.7C218.09 363.48 218.08 339.26 218.06 315.04ZM349.27 324.24C338.01 336.78 326.76 349.32 315.5 361.86C310.68 356.16 305.38 348.46 298.8 344.67C294.62 342.26 289.69 343.52 287.45 347.94C285.24 352.32 287.35 355.85 290.18 359.28C295.15 365.31 300.62 370.9 305.46 377.04C307.7 379.88 309.85 383.84 313.65 384.78C320.46 386.46 323.72 381.49 327.15 376.68C333.58 367.67 340.36 357.93 348.28 350.16C348.35 362.46 348.43 374.76 348.5 387.06C324.5 387.11 300.5 387.17 276.5 387.22C276.5 363.14 276.5 339.06 276.5 314.98C300.5 315.12 324.5 315.26 348.5 315.4C348.76 318.34 349.01 321.29 349.27 324.24ZM374.92 315.26C391.94 315.34 408.97 315.42 425.99 315.5C426.22 337 426.46 358.5 426.69 380C426.81 382 426.93 383.99 427.05 385.99C423.38 388.67 412.42 387.25 407.5 387.25C395.83 387.25 384.17 387.29 372.5 387.27C366.32 387.26 359.36 388.13 353.5 386.53C353.56 372.32 353.63 358.12 353.69 343.91C357.88 338.33 363.07 333.43 368 328.51C370.38 326.13 373.58 323.52 374.63 320.2C375.17 318.52 375.06 316.99 374.92 315.26ZM504 365.97C501.83 368.45 498.73 370.19 495.5 370.72C487.97 363.3 492.95 346.25 485.4 337.12C479.85 330.39 470.25 332.4 463.58 336.07C449.84 343.63 440.5 358.35 431.77 370.86C429.47 366.75 430.77 359.25 430.75 354.5C430.69 341.53 430.4 328.46 431.02 315.5C455.18 315.44 479.34 315.39 503.5 315.33C503.67 332.21 503.83 349.09 504 365.97ZM582.19 353.22C579.68 355.72 576.1 357.47 573.24 359.72C567.79 364.01 562.61 370.96 555.5 371.91C550.41 366.37 551.68 355.57 548.07 348.45C547.12 346.57 545.72 344.77 544.08 343.42C529.46 331.37 518.31 356.64 508.34 362.09C508.39 346.4 508.45 330.7 508.5 315C532.74 315.17 556.97 315.33 581.21 315.5C581.54 328.07 581.86 340.64 582.19 353.22ZM658.89 344.98C654.65 346.62 650.54 347.54 646.61 350.05C638.32 355.34 630.12 365.04 619.5 365.01C612.92 364.98 609.49 359.36 604.87 355.6C599.57 351.29 593.67 349.73 587 351.71C585.24 348.55 586.15 344.06 586.18 340.5C586.25 332.24 585.03 323.12 586.5 315.05C610.5 315.16 634.5 315.27 658.5 315.39C658.63 325.25 658.76 335.12 658.89 344.98ZM664 358.2C671.03 360.2 676.06 366.52 682.04 370.48C693.01 377.73 705.74 377.55 717.31 371.78C721.05 369.92 728.41 367.2 729.21 362.5C729.87 358.59 726.8 354.77 722.67 355.33C719.66 355.75 716.45 358.89 713.77 360.3C709.21 362.7 703.68 364.35 698.5 363.92C690.32 363.24 684.86 357.43 678.85 352.63C673.95 348.72 669.15 346.54 663.15 344.91C663.29 335.11 663.43 325.3 663.56 315.5C687.76 315.5 711.96 315.5 736.15 315.5C735.94 339.43 735.72 363.36 735.5 387.29C711.5 387.04 687.5 386.79 663.5 386.55C663.67 377.1 663.83 367.65 664 358.2ZM502.78 381.73C503.18 383.32 503.59 384.91 503.99 386.5C497.59 388.73 485.63 387.28 478.5 387.21C468.51 387.11 458.49 387.22 448.5 387.18C444.6 387.17 440.73 387.59 436.91 386.75C442.6 374.36 451.88 362.62 461.55 353.05C465.73 348.92 470.42 344.33 476.5 345.34C481.55 356.32 476.57 381.53 494.5 383.02C497.43 383.26 500 382.39 502.78 381.73ZM79.05 350.29C79.05 356.55 79.05 362.81 79.05 369.06C59.82 369.06 40.6 369.06 21.37 369.06C21.37 362.81 21.37 356.55 21.37 350.29C40.6 350.29 59.82 350.29 79.05 350.29ZM581.62 368.92C581.49 374.78 581.36 380.64 581.22 386.5C575.7 387.94 569.27 387.39 563.5 387.36C554.17 387.31 544.83 387.29 535.5 387.2C526.93 387.13 516.65 388.72 508.5 386.52C508.36 383.95 508.21 381.39 508.07 378.82C513.08 374.38 518.27 370.32 522.8 365.28C526.73 360.92 530.89 355.07 536.5 353.05C540.98 358.37 539.64 368.83 542.85 375.59C543.75 377.49 545.08 379.44 546.61 380.9C559.26 392.98 572.01 374.47 581.62 368.92ZM658 358.33C658.17 367.85 658.33 377.37 658.5 386.89C652.61 387.66 646.46 387.33 640.5 387.19C631.84 386.98 623.16 387.3 614.5 387.29C605.54 387.27 594.93 388.71 586.25 386.5C586.12 379.64 585.99 372.79 585.86 365.93C597.13 356.55 603.31 376.48 617.5 377.16C636.02 378.04 642.87 363.17 658 358.33ZM21.11 389.09C27.71 389.09 34.3 389.09 40.9 389.09C40.9 517.56 40.9 646.03 40.9 774.5C34.3 776.17 27.71 777.83 21.11 779.5C21.11 649.36 21.11 519.22 21.11 389.09ZM79.31 389.12C80.35 400.06 79.47 411.5 79.46 422.5C79.42 442.17 79.45 461.83 79.45 481.5C79.44 543.17 79.34 604.83 79.46 666.5C79.52 692.83 79.47 719.17 79.46 745.5C79.46 753.17 79.45 760.83 79.45 768.5C79.44 772.2 80.07 776.19 78.65 779.5C72.43 777.78 66.21 776.06 59.98 774.34C59.98 645.93 59.98 517.53 59.98 389.12C66.43 389.12 72.87 389.12 79.31 389.12ZM218.08 392.08C235.74 392.22 253.39 392.36 271.05 392.5C270.91 416.5 270.77 440.5 270.62 464.5C253.12 464.61 235.61 464.72 218.1 464.83C218.09 440.58 218.09 416.33 218.08 392.08ZM348.72 392.19C348.72 416.33 348.72 440.47 348.72 464.61C324.51 464.61 300.3 464.61 276.08 464.61C276.08 440.47 276.08 416.33 276.08 392.19C300.3 392.19 324.51 392.19 348.72 392.19ZM426.13 392.18C426.13 416.32 426.13 440.46 426.13 464.6C401.97 464.6 377.81 464.6 353.64 464.6C353.64 440.46 353.64 416.32 353.64 392.18C377.81 392.18 401.97 392.18 426.13 392.18ZM503.85 392.18C503.85 416.31 503.85 440.45 503.85 464.58C479.51 464.58 455.17 464.58 430.84 464.58C430.84 440.45 430.84 416.31 430.84 392.18C455.17 392.18 479.51 392.18 503.85 392.18ZM581.32 392.19C581.32 416.33 581.32 440.46 581.32 464.59C557.06 464.59 532.81 464.59 508.55 464.59C508.55 440.46 508.55 416.33 508.55 392.19C532.81 392.19 557.06 392.19 581.32 392.19ZM586.12 392.19C610.28 392.19 634.44 392.19 658.61 392.19C658.61 416.32 658.61 440.45 658.61 464.58C634.44 464.58 610.28 464.58 586.12 464.58C586.12 440.45 586.12 416.32 586.12 392.19ZM736.07 392.24C736.07 416.34 736.07 440.45 736.07 464.56C711.88 464.56 687.7 464.56 663.51 464.56C663.51 440.45 663.51 416.34 663.51 392.24C687.7 392.24 711.88 392.24 736.07 392.24ZM809.95 392.03C809.95 416.33 809.95 440.62 809.95 464.91C787.01 464.78 764.06 464.64 741.12 464.5C741.06 440.5 741 416.5 740.94 392.5C763.94 392.34 786.95 392.19 809.95 392.03ZM218.06 469.04C235.72 469.19 253.39 469.35 271.05 469.5C271.11 493.5 271.17 517.5 271.23 541.5C253.51 541.66 235.78 541.82 218.06 541.99C218.06 517.67 218.06 493.35 218.06 469.04ZM349.97 478.21C338.81 490.58 327.66 502.95 316.5 515.32C309.76 511.38 306.22 502.99 299.42 499.03C295.39 496.68 289.73 497.52 287.55 502.05C285.37 506.6 288.05 510.27 290.91 513.62C295.97 519.54 300.99 525.52 305.97 531.52C308.17 534.16 310.16 537.72 313.71 538.76C320.45 540.73 323.9 535.53 327.34 530.81C333.88 521.86 340.62 511.56 348.85 504.1C348.73 516.69 348.62 529.27 348.5 541.86C324.34 541.74 300.18 541.62 276.02 541.5C276.18 517.36 276.34 493.22 276.5 469.08C300.58 469.22 324.66 469.36 348.73 469.5C349.15 472.4 349.56 475.3 349.97 478.21ZM426.84 531C426.85 532 426.86 533 426.87 534C426.61 536.5 426.35 539 426.1 541.5C401.93 541.5 377.77 541.5 353.6 541.5C353.41 527.62 353.21 513.74 353.02 499.86C357.71 489.87 376.15 481.83 374.78 470.09C378.44 467.77 385.02 469.13 389.5 469.14C399.79 469.18 416.81 467.61 426.17 469.5C426.63 484.11 426.34 498.88 426.33 513.5C426.33 518.54 424.64 526.7 426.84 531ZM504.19 516.14C501.33 519.76 497.09 522.43 492.5 522.82C484.88 515.82 488.11 502.43 480.65 494.82C474.76 488.81 466.58 490.74 460.05 494.54C451.27 499.67 444 507.34 437.6 515.13C435.46 517.73 433.68 520.88 431.27 523.13C431.11 505.26 430.95 487.38 430.79 469.5C455.21 469.5 479.62 469.5 504.04 469.5C504.09 485.05 504.14 500.59 504.19 516.14ZM581.89 517.05C579.77 519.05 576.59 520.39 573.78 521.35C571.44 522.14 568.96 522.78 566.5 522.95C549.16 524.13 550.87 505.68 538.27 500.25C526.41 495.14 516.76 507.15 508.14 512.94C508.27 498.46 508.41 483.98 508.54 469.5C532.75 469.5 556.96 469.5 581.17 469.5C581.41 485.35 581.65 501.2 581.89 517.05ZM659.14 515.15C655.98 518.89 647.18 524.28 643.04 519.41C636.06 511.22 639.45 496.27 623.5 494.68C609.25 493.25 598.4 507.97 586.98 514.07C586.82 499.15 586.66 484.23 586.5 469.31C610.5 469.33 634.5 469.35 658.5 469.36C658.71 484.63 658.93 499.89 659.14 515.15ZM661.95 528.66C665.72 525.19 676.91 516.59 682.05 517.51C685.99 518.21 689.07 522.1 692.2 524.34C696.88 527.7 702.67 529.8 708.49 529.67C714.38 529.54 731.13 524.84 731.04 517.5C730.99 513.77 728.1 511.58 724.5 511.77C718.8 512.07 714.07 517.26 707.5 517.12C699.14 516.94 694.65 508.9 687.3 506.24C677.62 502.74 670.89 508.28 663 512.79C663.18 498.36 663.36 483.93 663.54 469.5C687.71 469.5 711.88 469.5 736.05 469.5C736.03 493.5 736.01 517.5 735.99 541.5C711.86 541.5 687.74 541.5 663.61 541.5C663.36 537.28 664.41 531.98 661.95 528.66ZM809.96 469.01C809.97 493.35 809.97 517.7 809.98 542.04C786.95 541.86 763.91 541.68 740.88 541.5C740.86 517.5 740.83 493.5 740.81 469.5C763.86 469.34 786.91 469.17 809.96 469.01ZM503.81 531.99C503.71 535.3 503.6 538.61 503.5 541.92C479.5 541.92 455.5 541.92 431.5 541.92C431.33 540.56 431.15 539.2 430.98 537.84C437.6 537.28 439.23 532.21 442.95 527.45C448.84 519.92 461.62 503.91 471.5 503.28C479.45 511.33 474.26 531.65 489.58 534.78C491.53 535.18 493.53 535.22 495.5 534.97C498.47 534.59 501.12 533.2 503.81 531.99ZM659 530.25C658.83 534.07 658.67 537.9 658.5 541.72C634.5 541.78 610.5 541.84 586.5 541.9C586.05 537.87 585.6 533.85 585.15 529.82C591.09 525.36 597.84 521.86 603.84 517.36C609.63 513.02 615.92 506.9 623.5 507.01C632.1 514.59 628.36 531.34 643.66 533.65C645.81 533.98 647.95 533.91 650.08 533.52C653.23 532.95 656.06 531.42 659 530.25ZM580.96 531.93C581.04 535.12 581.12 538.31 581.2 541.5C556.96 541.54 532.73 541.58 508.5 541.62C508.39 537.45 508.27 533.28 508.16 529.1C512.45 524.97 524.41 513.77 529.71 512.25C531.46 511.75 532.74 511.96 534.5 512.11C538.98 516.39 540.87 522.74 545.23 527.27C555.73 538.19 568.07 535.24 580.96 531.93ZM218.11 546.32C235.57 546.45 253.04 546.58 270.5 546.71C272.04 552.25 271.21 558.68 271.17 564.5C271.1 574.84 271.13 585.17 271.15 595.5C271.16 603.06 272.6 612.12 270.5 619.28C253.01 619.19 235.53 619.1 218.04 619.01C218.06 594.78 218.08 570.55 218.11 546.32ZM348.74 546.82C348.74 570.95 348.74 595.07 348.74 619.2C324.52 619.2 300.3 619.2 276.08 619.2C276.08 595.07 276.08 570.95 276.08 546.82C300.3 546.82 324.52 546.82 348.74 546.82ZM426.17 547.5C426.17 571.17 426.17 594.83 426.17 618.5C418.53 620.73 408.57 619.1 400.5 619.08C390.14 619.05 379.85 619.28 369.5 619.18C364.2 619.13 358.78 619.59 353.62 618.5C353.62 594.83 353.62 571.17 353.62 547.5C358.37 546.37 363.55 546.84 368.5 546.85C376.83 546.86 385.17 546.97 393.5 546.83C401.8 546.7 419.05 545.59 426.17 547.5ZM503.79 546.84C503.79 570.94 503.79 595.05 503.79 619.16C479.7 619.16 455.6 619.16 431.5 619.16C429.34 611.52 430.83 601.57 430.84 593.5C430.87 583.83 430.88 574.17 430.86 564.5C430.85 558.72 430.21 552.41 431.5 546.84C455.6 546.84 479.7 546.84 503.79 546.84ZM581.31 547.5C581.31 571.39 581.31 595.29 581.31 619.18C557.05 619.18 532.79 619.18 508.53 619.18C508.53 595.22 508.53 571.27 508.53 547.31C514.3 546.21 520.6 546.66 526.5 546.86C534.48 547.14 542.51 546.81 550.5 546.82C560.44 546.84 571.63 545.33 581.31 547.5ZM658.6 546.85C658.6 570.95 658.6 595.04 658.6 619.14C634.43 619.14 610.27 619.14 586.1 619.14C586.1 595.04 586.1 570.95 586.1 546.85C610.27 546.85 634.43 546.85 658.6 546.85ZM736.07 546.86C736.07 570.98 736.07 595.11 736.07 619.23C711.88 619.23 687.68 619.23 663.49 619.23C663.49 595.11 663.49 570.98 663.49 546.86C687.68 546.86 711.88 546.86 736.07 546.86ZM809.92 546.26C809.92 570.77 809.92 595.28 809.92 619.78C787.11 619.6 764.31 619.42 741.5 619.24C741.33 595.33 741.15 571.41 740.98 547.5C746.9 545.68 754.28 546.8 760.5 546.8C772.99 546.8 785.49 546.89 797.97 546.69C801.94 546.63 806.11 547.51 809.92 546.26ZM218.05 624.01C235.75 624.18 253.45 624.34 271.16 624.5C271.16 648.5 271.16 672.5 271.16 696.5C253.48 696.62 235.79 696.74 218.1 696.86C218.08 672.58 218.07 648.3 218.05 624.01ZM349.28 632.24C338.02 644.69 326.76 657.14 315.5 669.59C311.2 664.87 305.05 655.76 299.62 652.87C295.46 650.66 289.72 651.41 287.55 656.04C283.5 664.72 300.16 678.66 305.4 685.12C307.76 688.02 309.83 691.74 313.51 693.08C319.91 695.41 323.2 690.46 326.53 686.03C331.93 678.86 341.6 664.16 347.96 658.92C348.16 671.45 348.37 683.97 348.57 696.5C324.55 696.63 300.52 696.76 276.5 696.89C276.5 672.59 276.5 648.29 276.5 623.99C300.5 624.06 324.5 624.13 348.5 624.19C348.76 626.87 349.02 629.56 349.28 632.24ZM426.79 688C426.89 690.25 426.99 692.5 427.09 694.75C424.18 698.96 414.26 696.86 409.5 696.86C397.17 696.84 384.83 696.9 372.5 696.89C366.3 696.88 359.73 697.59 353.66 696.5C352.58 686.69 353.37 676.36 353.65 666.5C353.77 662.46 354.74 656.83 352.1 653.9C357.87 645.73 372.2 635.42 375.21 627.23C375.64 626.09 376.07 624.95 376.5 623.81C393.07 624.04 409.64 624.27 426.22 624.5C426.41 645.67 426.6 666.83 426.79 688ZM504.23 674.22C501.63 677.55 498.69 679.12 494.5 678.82C487.61 670.07 493.03 654.92 485.01 645.51C479.18 638.68 470.11 640.77 463.39 644.93C449.88 653.29 441.01 666.35 431.89 678.94C429.5 675.67 430.82 668.7 430.78 664.5C430.65 651.18 430.74 637.83 430.75 624.5C455 624.34 479.25 624.17 503.5 624.01C503.74 640.75 503.99 657.48 504.23 674.22ZM581.23 662.12C579.15 663.9 576.78 665.36 574.65 667.12C568.99 671.81 563.21 680.06 555.5 680.7C549.94 674.85 551.99 664.41 548.27 657.27C547.3 655.4 545.89 653.6 544.25 652.28C530.36 641.11 517.17 663.79 508.13 670.93C508.25 655.44 508.38 639.94 508.5 624.45C532.72 624.46 556.94 624.48 581.17 624.5C581.19 637.04 581.21 649.58 581.23 662.12ZM659.2 653.22C653.9 655.44 648.66 656.94 643.75 660.26C636.58 665.09 628.87 674.1 619.5 673.8C612.43 673.58 608.96 667.44 603.99 663.5C598.95 659.52 593.22 658.34 587 659.75C585.27 656.51 586 652.11 585.99 648.5C585.97 640.58 585.4 632.05 586.5 624.24C610.5 624.24 634.5 624.24 658.5 624.24C658.73 633.9 658.97 643.56 659.2 653.22ZM659.83 666.59C669.44 665.33 676.58 675.89 684.17 680.37C694.27 686.33 706.05 685.51 716.45 680.92C722.58 678.21 729.59 674.95 729.13 667.5C727.46 665.05 725.74 663.55 722.53 663.99C719.88 664.35 717.62 666.64 715.41 667.95C710.61 670.78 705.22 672.93 699.56 672.61C689.35 672.03 683.58 664.06 675.92 658.57C671.86 655.66 667.67 654.84 663.16 653.17C663.27 643.57 663.39 633.96 663.5 624.36C687.73 624.41 711.96 624.45 736.19 624.5C736.05 648.5 735.9 672.5 735.76 696.5C711.74 696.5 687.72 696.5 663.69 696.5C663.6 687.17 663.5 677.83 663.41 668.5C662.22 667.86 661.02 667.23 659.83 666.59ZM809.96 623.96C809.95 648.54 809.93 673.12 809.92 697.7C787.02 697.3 764.11 696.9 741.21 696.5C741.11 672.5 741 648.5 740.9 624.5C763.92 624.32 786.94 624.14 809.96 623.96ZM503.87 689.99C503.75 692.21 503.62 694.43 503.5 696.66C480.74 696.5 457.99 696.35 435.23 696.2C439.05 692.55 440.72 687.49 443.58 683.1C448.57 675.43 454.49 667.94 461.25 661.75C465.34 658 469.79 653.62 475.5 653.25C483.63 662.52 474.36 691.31 495.5 691.75C498.37 691.81 501.15 690.74 503.87 689.99ZM581 678.05C581.76 683.71 582.31 691.52 580.5 696.91C556.5 696.78 532.5 696.65 508.5 696.51C508.28 693.61 508.06 690.71 507.85 687.81C511.05 684.06 515.49 681.09 518.98 677.48C523.88 672.42 529.36 663.44 536.5 661.99C541.87 667.98 539.29 678.25 543.13 685.35C544.87 688.58 547.75 691.12 551.22 692.33C563.41 696.59 572.32 684.06 581 678.05ZM658.93 666.82C658.78 676.71 658.64 686.61 658.49 696.5C634.42 696.5 610.35 696.5 586.28 696.5C586.11 689.27 585.95 682.03 585.78 674.8C588.54 671.76 592.92 670.73 596.7 672.78C598.77 673.91 600.28 675.96 601.89 677.61C606.44 682.26 611.84 685.5 618.5 685.83C636.58 686.71 644.55 669.16 658.93 666.82ZM218.11 701.27C235.63 701.35 253.15 701.42 270.67 701.5C270.85 725.5 271.03 749.5 271.21 773.5C253.5 773.65 235.79 773.81 218.07 773.96C218.09 749.73 218.1 725.5 218.11 701.27ZM348.77 701.58C348.77 725.75 348.77 749.93 348.77 774.11C324.54 774.11 300.31 774.11 276.08 774.11C276.08 749.93 276.08 725.75 276.08 701.58C300.31 701.58 324.54 701.58 348.77 701.58ZM426.11 701.55C426.11 725.74 426.11 749.93 426.11 774.12C401.91 774.12 377.72 774.12 353.52 774.12C353.52 749.93 353.52 725.74 353.52 701.55C377.72 701.55 401.91 701.55 426.11 701.55ZM503.83 701.58C503.83 725.76 503.83 749.95 503.83 774.13C479.49 774.13 455.16 774.13 430.82 774.13C430.82 749.95 430.82 725.76 430.82 701.58C455.16 701.58 479.49 701.58 503.83 701.58ZM581.36 702.5C581.36 726.37 581.36 750.25 581.36 774.12C557.06 774.12 532.77 774.12 508.48 774.12C508.48 750.09 508.48 726.06 508.48 702.03C514.41 700.18 524.83 701.53 531.34 701.59C542.39 701.68 553.45 701.49 564.5 701.54C570.01 701.56 576.22 700.82 581.36 702.5ZM658.61 701.55C658.61 725.75 658.61 749.94 658.61 774.13C634.57 774.13 610.54 774.13 586.5 774.13C585.43 768.48 586.08 762.3 586.09 756.5C586.11 745.5 586.06 734.5 586.06 723.5C586.07 717.41 584.78 706.86 587 701.55C610.87 701.55 634.74 701.55 658.61 701.55ZM809.94 701.11C810.13 703.58 810.31 706.05 810.5 708.52C824.04 708.21 837.73 708.38 851.15 710.48C856.54 711.32 862.12 712.04 867.45 713.17C870.13 713.73 871.6 714.92 874.18 714C874.73 714.27 875.28 714.54 875.83 714.82C881.49 718.39 881.84 717.01 887.69 718.17C889.63 718.56 890.97 719.98 892.69 720.69C894.12 721.28 895.98 720.94 897.47 721.27C902.37 722.32 906.17 726.67 910.38 729.12C915.1 731.86 920.33 732.94 925.25 735.21C932.2 738.43 939.76 742.91 945.86 747.59C948.32 749.48 950.48 751.74 953.11 753.38C955.33 754.77 958.79 755.9 960.53 756.96C962.08 757.91 962.86 759.03 964.5 759.7C970.57 768.77 979.63 774.57 986.67 782.78C988.87 785.35 990.71 788.14 992.72 790.82C995.16 794.07 998.45 796.58 1001.19 799.37C1002.38 800.57 1003.48 802.22 1004.5 802.7C1008.74 814.01 1016.43 824.21 1022.72 834.51C1023.69 836.09 1025.34 838.77 1025.81 840.53C1026.01 841.28 1025.43 842.19 1025.75 842.9C1026.03 843.54 1027.11 843.74 1027.52 844.39C1028.21 845.52 1027.96 847.09 1028.41 848.31C1029.64 851.65 1032.21 855.05 1032.81 858.53C1033.55 862.82 1031.76 861.66 1035.16 865.5C1034.05 870.07 1038.08 884.2 1040.05 889C1042.48 903.86 1043 918.46 1043 933.5C1043 935.92 1042.06 938.27 1042.06 940.5C1042.06 942.25 1043.21 943.55 1042.97 945.47C1042.83 946.56 1041.47 948.24 1042.27 949.31C1043.46 950.92 1042.56 948.95 1044.27 950.5C1043.66 951.07 1042.8 951.36 1042.27 952.01C1041.03 953.52 1041.04 957.57 1040.71 959.43C1039.62 965.61 1037.45 971.78 1036.94 978C1035.4 981.96 1034.99 986.33 1033.66 990.31C1033.44 990.96 1032.77 991.43 1032.61 992.03C1032.39 992.88 1032.9 993.43 1032.58 994.31C1032.34 994.98 1031.34 995.75 1031 996.5C1030.4 997.81 1030.95 999.06 1030.51 1000.31C1029.97 1001.84 1028.15 1003.42 1027.56 1005C1027.29 1005.74 1027.67 1006.27 1027.47 1007.03C1027.1 1008.46 1025.9 1009.45 1025.16 1010.66C1024.32 1012.02 1024.07 1013.55 1023.5 1015C1022.24 1018.23 1020.07 1021.03 1018.53 1024.03C1017.49 1026.06 1017.31 1028.5 1015.93 1030.4C1012.94 1034.51 1009.21 1038.76 1007.02 1043.43C1006.72 1044.08 1006.89 1044.74 1006.47 1045.34C1005.85 1046.25 1001.18 1050.76 1001.27 1051.69C1001.48 1053.76 1001.56 1051.13 1002.3 1053.5C995.71 1055.58 995.3 1062.1 990.5 1066C986.43 1069.3 982.96 1073.74 978.95 1077.44C974.9 1081.16 970.87 1086.4 966.37 1089.47C965.66 1089.96 964.71 1089.98 964.03 1090.53C962.72 1091.6 962.54 1093.54 960.97 1094.47C960.04 1095.01 958.91 1094.9 958.03 1095.53C957.39 1095.99 957.35 1096.87 956.81 1097.31C952.22 1101.04 944.79 1103.45 942.5 1109.13C938.82 1108.89 935.88 1111.44 932.68 1113.18C928.51 1115.44 924.36 1118.75 920 1120.5C915.77 1122.2 911.23 1123.72 908.5 1127.17C904.84 1126.19 905.84 1126.18 903.5 1129.3C902.31 1129.25 901.14 1128.77 899.69 1129.34C896.49 1130.58 893.7 1134.22 890.5 1132C887.12 1134.84 883.22 1135.18 878.77 1136.4C870.54 1138.65 862.25 1140.24 853.81 1141.47C851.85 1141.75 849.66 1141.78 847.78 1142.38C846.69 1142.72 845.76 1143.81 844.53 1143.71C843.68 1143.63 842.21 1142.46 841.5 1142C840.72 1142.81 840.6 1143.6 839.47 1144.09C838.39 1144.56 837.12 1144.06 836.03 1143.98C833.49 1143.79 831.13 1145.43 828.53 1144.78C827.63 1144.55 827.32 1143.74 826.5 1143.49C826.15 1143.38 825.87 1144 825.5 1143.96C824.55 1143.85 823.58 1143.14 822.5 1143C819.68 1142.64 815.31 1142.45 812.53 1143.03C811.44 1143.26 810.74 1143.96 809.66 1144.15C807.62 1144.52 805.48 1143.03 803.5 1142.76C801.35 1142.46 799.08 1142.78 796.9 1142.52C789.72 1141.68 782.57 1140.53 775.49 1139.09C771.4 1138.25 766.94 1137.77 762.99 1136.58C761.24 1136.06 759.94 1134.85 758.29 1134.3C756.79 1133.79 755.05 1134.15 753.6 1133.6C752.82 1133.3 752.32 1132.32 751.52 1131.91C750 1131.11 748.2 1131.46 746.59 1130.94C743.77 1130.01 740.98 1128.32 738.27 1127.26C734.74 1125.87 731.01 1125.9 727.58 1123.81C721.08 1119.85 714.41 1115.5 707.62 1111.87C702.56 1109.15 697.11 1107.19 692.46 1104.01C688.75 1101.47 686.49 1097.38 683.05 1094.45C677.82 1089.99 672 1086.34 667.08 1081.44C663.32 1077.71 659.88 1073.03 655.67 1069.81C653.54 1068.19 651.39 1067.08 649.57 1064.96C647.28 1062.29 646.12 1059.22 644.09 1056.41C638.96 1049.36 634.32 1042.23 629.49 1035.01C627.91 1032.66 625.54 1030.89 624.13 1028.48C620.67 1022.54 618.72 1015.41 614.98 1009.82C614.91 1009.55 614.85 1009.27 614.78 1009C613.71 1003.7 611.02 998.43 609.18 993.32C606.2 985.03 604.02 976.05 602.38 967.4C601.02 960.2 599.82 952.81 599.2 945.5C598.79 940.57 599.25 935.29 598.23 930.5C594.15 930.33 590.07 930.16 586 929.99C586.14 905.16 586.28 880.33 586.42 855.5C592.1 855.02 597.9 855.48 603.6 855.49C605.44 855.49 608.73 856.11 610.31 855.03C611.37 854.32 611.62 852.62 612 851.5C603.44 851.17 594.87 850.83 586.31 850.5C586.38 826.56 586.44 802.62 586.5 778.68C602.95 778.29 619.53 778.43 636 778.62C640.61 778.68 654.8 780.03 658.2 777.7C665.4 772.77 663.36 764.15 663.39 756.5C663.46 738.46 663.43 720.42 663.5 702.39C687.5 702.15 711.5 701.91 735.5 701.67C735.83 709.19 736.17 716.71 736.5 724.23C737.79 723.85 739.95 723.68 740.6 722.22C741.83 719.44 740.9 705.47 741 701.5C763.98 701.37 786.96 701.24 809.94 701.11ZM805.36 738.32C777.47 740.56 749.84 748.2 725.29 761.78C702.89 774.17 683.55 790.1 667.64 810.19C652.15 829.75 639.65 852.37 633.22 876.61C625.05 907.42 625.39 940.58 633.24 971.39C636.46 984.04 641.84 996.13 647.81 1007.68C682.59 1074.95 757.36 1118.87 833.5 1112.89C861.38 1110.69 889.19 1102.85 913.6 1089.04C937.45 1075.54 959.18 1058.2 975.44 1035.92C990.23 1015.66 1002.04 993.01 1007.79 968.46C1012.5 948.38 1013.98 927.98 1011.83 907.46C1001.08 804.77 907.84 730.08 805.36 738.32ZM218.07 850.9C218.06 826.94 218.06 802.98 218.05 779.01C235.53 778.85 253.02 778.68 270.5 778.52C272.5 785.87 271.1 794.8 271.08 802.5C271.04 818.46 271.72 834.56 271.04 850.5C253.38 850.63 235.72 850.77 218.07 850.9ZM348.77 778.73C348.77 802.76 348.77 826.79 348.77 850.82C324.54 850.82 300.31 850.82 276.08 850.82C276.08 826.79 276.08 802.76 276.08 778.73C300.31 778.73 324.54 778.73 348.77 778.73ZM426.16 778.67C426.16 802.71 426.16 826.76 426.16 850.8C401.96 850.8 377.76 850.8 353.56 850.8C353.56 826.76 353.56 802.71 353.56 778.67C377.76 778.67 401.96 778.67 426.16 778.67ZM503.84 778.65C503.84 802.71 503.84 826.77 503.84 850.83C479.5 850.83 455.16 850.83 430.82 850.83C430.16 835.1 430.87 819.25 430.88 803.5C430.89 795.6 429.4 786.16 431.48 778.65C455.6 778.65 479.72 778.65 503.84 778.65ZM580.52 778.68C582.81 785.63 581.32 795.05 581.32 802.5C581.31 818.57 581.96 834.78 581.23 850.83C556.96 850.83 532.69 850.83 508.42 850.83C508.42 826.78 508.42 802.73 508.42 778.68C532.45 778.68 556.49 778.68 580.52 778.68ZM788.99 898.03C789.26 897.72 789.86 897.79 790.06 897.43C791.17 895.39 790.34 881.72 790.34 878.5C790.32 866.17 790.34 853.83 790.33 841.5C790.32 835.48 790.9 829.01 789.95 823.13C793.12 808.41 810.02 810.92 821.5 810.98C828.96 811.02 837.2 810.62 841.79 817.71C846.1 824.37 844.31 833.97 844.31 841.5C844.3 860.01 843.03 879.06 844.46 897.5C851.25 898.67 858.58 898 865.5 898C878.5 898 891.5 897.99 904.5 898C912.77 898.01 923.31 896.04 929.29 903.22C934.56 909.55 933.67 929.33 932.76 937.5C931.34 950.29 919.48 950.47 909.57 950.49C895.32 950.53 881.07 950.47 866.82 950.5C859.54 950.51 851.53 949.57 844.5 951.21C843.1 972.12 844.5 993.53 844.55 1014.5C844.57 1024.58 843.18 1035.72 830.99 1037.44C825.28 1038.25 806.94 1038.5 801.64 1037.12C798.88 1036.4 796.4 1035.12 794.32 1033.17C787.89 1027.16 789.57 1017.44 789.56 1009.5C789.52 990.15 790.11 970.71 789.5 951.37C784.3 949.09 776.29 950.49 770.5 950.49C755.83 950.48 741.17 950.43 726.5 950.46C715.59 950.47 703.65 951.33 701.61 937.51C700.8 932.02 700.63 913.7 702.02 908.59C702.62 906.4 703.76 904.49 705.31 902.84C711.43 896.3 721.42 897.98 729.5 897.98C749.33 897.98 769.17 897.84 788.99 898.03ZM218.09 855.23C235.64 855.32 253.19 855.41 270.73 855.5C271.08 880.32 271.43 905.15 271.77 929.97C254.02 930.05 236.26 930.12 218.5 930.2C218.36 905.21 218.23 880.22 218.09 855.23ZM348.97 929.99C324.63 929.99 300.29 930 275.95 930.01C276.1 905.17 276.24 880.34 276.38 855.5C300.42 855.55 324.46 855.61 348.5 855.66C348.66 880.44 348.82 905.21 348.97 929.99ZM426.1 930.01C401.77 929.99 377.44 929.97 353.11 929.96C353.41 905.14 353.7 880.32 354 855.5C377.92 855.5 401.83 855.5 425.75 855.5C425.87 880.34 425.98 905.17 426.1 930.01ZM503.97 929.96C479.6 929.99 455.23 930.01 430.87 930.03C430.95 905.19 431.03 880.34 431.11 855.5C455.29 855.5 479.46 855.5 503.63 855.5C503.75 880.32 503.86 905.14 503.97 929.96ZM581.82 929.97C557.25 929.96 532.68 929.95 508.11 929.93C508.24 905.24 508.37 880.55 508.5 855.85C513.71 854.45 520.03 855.52 525.47 855.55C537.48 855.62 549.49 855.62 561.5 855.51C567.56 855.45 576.01 853.89 581.5 856.14C581.61 880.75 581.71 905.36 581.82 929.97Z" fill="#fdf6dc" fill-rule="evenodd" stroke="#fdf6dc" stroke-width="0.25" stroke-linejoin="round"/>
<path d="M874.02 160.17C875.05 170.91 874.29 181.73 874.45 192.5C874.72 210.17 874.52 227.83 874.47 245.5C874.3 298.17 874.29 350.84 874.46 403.5C874.61 451.84 874.61 500.2 874.38 548.5C874.25 573.85 875.15 599.19 874.42 624.5C873.56 654.29 876.38 684.29 874.18 714C871.6 714.92 870.13 713.73 867.45 713.17C862.12 712.04 856.54 711.32 851.15 710.48C837.73 708.38 824.04 708.21 810.5 708.52C810.31 706.05 810.13 703.58 809.94 701.11C809.93 699.97 809.92 698.84 809.92 697.7C809.93 673.12 809.95 648.54 809.96 623.96C809.95 622.57 809.93 621.18 809.92 619.78C809.92 595.28 809.92 570.77 809.92 546.26C809.94 544.85 809.96 543.45 809.98 542.04C809.97 517.7 809.97 493.35 809.96 469.01C809.96 467.64 809.95 466.28 809.95 464.91C809.95 440.62 809.95 416.33 809.95 392.03C809.95 390.63 809.94 389.23 809.94 387.82C809.95 363.3 809.96 338.77 809.97 314.25C809.97 313.11 809.97 311.97 809.97 310.83C809.98 286.27 809.98 261.71 809.99 237.15C809.98 236.03 809.98 234.9 809.98 233.78C810.03 221.02 810.08 208.26 810.13 195.5C787.14 195.4 764.15 195.29 741.16 195.19C739.44 195.19 737.72 195.19 736 195.19C724.5 195.23 713 195.28 701.5 195.32C699.49 211.55 704.55 218.05 694.01 232.81C692.01 234.28 690 235.76 688 237.23C680.16 240.68 672.52 239.66 664.16 240.12C662.07 240.11 659.97 240.1 657.87 240.09C633.25 240.14 608.62 240.19 584 240.23C582.95 240.19 581.9 240.16 580.85 240.12C556.95 240.12 533.04 240.12 509.14 240.12C507.76 240.15 506.38 240.19 505 240.23C480.38 240.2 455.76 240.16 431.14 240.13C429.3 240.13 427.46 240.14 425.62 240.14C401.78 240.12 377.94 240.11 354.11 240.09C352.74 240.13 351.37 240.17 350 240.21C343.12 239.62 337.51 239.77 331 237.17C329.06 235.76 327.11 234.36 325.17 232.95C314.84 219.2 319.24 210.88 317.5 195.31C303.81 195.27 290.12 195.24 276.43 195.2C274.58 195.19 272.73 195.18 270.88 195.17C253.25 195.28 235.62 195.39 217.99 195.5C218.01 208 218.03 220.49 218.06 232.99C218.07 234.43 218.09 235.86 218.11 237.3C218.08 261.54 218.06 285.78 218.04 310.03C218.05 311.7 218.06 313.37 218.06 315.04C218.08 339.26 218.09 363.48 218.11 387.7C218.1 389.16 218.09 390.62 218.08 392.08C218.09 416.33 218.09 440.58 218.1 464.83C218.09 466.23 218.08 467.64 218.06 469.04C218.06 493.35 218.06 517.67 218.06 541.99C218.07 543.43 218.09 544.87 218.11 546.32C218.08 570.55 218.06 594.78 218.04 619.01C218.04 620.68 218.04 622.35 218.05 624.01C218.07 648.3 218.08 672.58 218.1 696.86C218.1 698.33 218.11 699.8 218.11 701.27C218.1 725.5 218.09 749.73 218.07 773.96C218.07 775.65 218.06 777.33 218.05 779.01C218.06 802.98 218.06 826.94 218.07 850.9C218.08 852.34 218.08 853.78 218.09 855.23C218.23 880.22 218.36 905.21 218.5 930.2C236.26 930.12 254.02 930.05 271.77 929.97C273.17 929.98 274.56 929.99 275.95 930.01C300.29 930 324.63 929.99 348.97 929.99C350.35 929.98 351.73 929.97 353.11 929.96C377.44 929.97 401.77 929.99 426.1 930.01C427.69 930.02 429.28 930.02 430.87 930.03C455.23 930.01 479.6 929.99 503.97 929.96C505.35 929.95 506.73 929.94 508.11 929.93C532.68 929.95 557.25 929.96 581.82 929.97C583.21 929.98 584.6 929.98 586 929.99C590.07 930.16 594.15 930.33 598.23 930.5C599.25 935.29 598.79 940.57 599.2 945.5C599.82 952.81 601.02 960.2 602.38 967.4C604.02 976.05 606.2 985.03 609.18 993.32C611.02 998.43 613.71 1003.7 614.78 1009C589.02 1009 563.26 1009 537.5 1009C530.5 1009 523.5 1009 516.5 1009C513.12 1009 508.89 1008.34 506 1009.81C472 1009.8 438 1009.78 404 1009.76C399.94 1007.82 393.13 1009 388.5 1009C376.17 1009 363.83 1009 351.5 1009C314.17 1009 276.83 1009 239.5 1009C228.83 1009 218.17 1009 207.5 1009C202.78 1009 196.29 1007.91 192 1009.65C169.51 1009.22 155.22 993 147.95 973.56C147.52 972.42 146.65 971.53 146.3 970.37C144.73 965.2 145.57 958.86 145.58 953.5C145.59 942.83 145.51 932.17 145.5 921.5C145.49 886.83 145.45 852.17 145.48 817.5C145.64 657.83 145.5 498.16 145.56 338.5C145.58 295.5 145.5 252.5 145.5 209.5C145.5 198.5 145.55 187.5 145.57 176.5C145.58 171.3 144.93 165.64 145.86 160.5C146.21 158.56 147.36 157.25 147.94 155.44C148.46 153.82 148.31 152.09 148.81 150.47C149.46 148.38 151.27 144.77 152.3 142.76C153.46 140.49 155.65 138.67 157.12 136.62C162.64 128.95 166.04 125.74 175.04 122.48C176.65 121.9 177.9 120.66 179.58 120.23C183.51 119.23 187.75 120.01 191.75 119.45C196.12 118.84 200.02 117.66 204.5 117.7C210.56 117.76 216.46 119.16 222.5 119.36C231.47 119.66 240.51 119.29 249.5 119.46C265.49 119.75 281.51 119.67 297.5 119.58C303.47 119.54 311.71 121.1 317 117.47C319.79 115.56 320.5 111.38 322.17 108.72C324.89 104.42 329.92 98.03 334.59 95.94C336.35 95.15 338.6 95.48 340.47 95C342.59 94.44 344.28 93.32 346.5 93.02C353.03 92.14 359.92 92.57 366.5 92.58C378.83 92.61 391.17 92.76 403.5 92.88C414.46 92.98 416.56 97.16 427.5 91.66C428.23 86.22 427.67 80.78 428.26 75.36C428.51 72.97 429.74 70.87 430.12 68.5C430.48 66.18 430.26 63.78 430.99 61.52C431.41 60.23 432.26 59.47 432.79 58.28C433.33 57.03 433.25 55.63 433.78 54.39C434.28 53.22 435.27 52.44 435.81 51.32C440.74 41.18 446.65 31.44 455.21 23.74C457.43 21.75 460.09 20.69 462.45 19.02C464.33 17.68 465.83 15.48 467.77 14.28C468.88 13.59 470.24 13.59 471.36 12.95C472.23 12.45 472.76 11.55 473.68 11.13C474.93 10.56 476.35 10.77 477.57 10.18C478.73 9.62 479.36 8.53 480.57 8.06C481.86 7.56 483.31 7.72 484.62 7.23C486.07 6.7 487.11 5.49 488.56 5.03C490.5 4.4 492.57 4.73 494.53 4.22C497.03 3.57 498.85 2.28 501.5 2.03C510.38 1.17 519.78 2.68 528.5 4.15C531.32 4.63 534.33 4.59 537.06 5.48C538.85 6.06 540.27 7.44 542.01 8.08C558.11 13.96 572.18 27.86 581.01 42.49C589.88 57.17 591.35 74.83 592.05 91.5C600.66 94.05 608.65 92.64 617.5 92.64C631.49 92.66 645.53 93.47 659.5 92.87C673.28 92.28 691.7 90.68 698.67 105.75C700.17 108.99 700.85 113.37 701.5 116.84C704.54 117.58 707.69 119.13 710.76 119.54C714.62 120.06 718.65 119.26 722.5 119.02C727.18 118.73 731.83 119.63 736.5 119.26C740.9 118.92 745.04 117.68 749.5 117.6C757.63 117.46 765.44 118.76 773.5 119.14C783.81 119.63 794.18 119.41 804.5 119.61C810.28 119.72 815.82 118.51 821.53 118.44C825.22 118.39 828.82 119.46 832.5 119.68C835.11 119.84 837.89 119.57 840.44 120.22C841.95 120.61 842.94 121.68 844.35 122.27C845.79 122.88 847.39 122.98 848.83 123.65C857.95 127.89 868.06 139.66 871.51 149.08C872.82 152.66 873.05 156.6 874.02 160.17ZM505.88 56.52C494.52 59.21 484.87 67.25 483.15 79.5C481.08 94.19 490.22 105.06 503.56 109.12C507.16 110.22 510.77 111.17 514.61 110.36C524.26 108.35 533.49 101.39 536.11 91.48C537.41 86.6 537.61 78.36 535.92 73.56C531.99 62.39 517.41 53.8 505.88 56.52Z" fill="#666e3b" fill-rule="evenodd" stroke="#666e3b" stroke-width="0.25" stroke-linejoin="round"/>
<path d="M96.97 295.03C100.14 307.11 98.73 320.04 98.77 332.5C98.84 354.83 98.65 377.17 98.74 399.5C99.02 475.84 98.51 552.17 98.75 628.5C98.82 651.16 99.33 673.84 98.99 696.5C98.79 709.81 98.36 723.19 98.76 736.5C99.17 750.46 99.28 764.54 98.82 778.5C98.58 785.65 98.78 791.92 96.9 798.78C93.19 806.5 89.47 814.23 85.76 821.95C78.48 836.56 71.2 851.17 63.92 865.78C59.92 871.64 57.87 881.61 48.54 879.89C41.95 878.67 38.57 866.05 35.72 860.77C27.53 845.64 19.4 830.24 11.93 814.57C8 806.31 3.1 796.59 3.07 787.5C2.65 691.18 2.85 594.82 3.2 498.5C3.35 454.85 2.48 411.15 3.19 367.5C3.44 352.17 3.07 336.83 3.11 321.5C3.13 315.22 1.87 307.3 3.62 301.22C4.04 299.75 5.11 298.63 5.56 297.19C6.11 295.42 5.84 293.48 6.37 291.71C6.94 289.79 8.8 287.11 9.86 285.36C11.81 282.14 16.42 278.43 20.11 277.56C21.85 277.15 23.72 277.39 25.49 277.01C27.29 276.62 28.76 275.54 30.54 275.12C34.07 274.29 37.9 274.49 41.5 274.4C58.89 273.99 78.01 270.07 90.89 284.63C93.67 287.77 95.15 291.41 96.97 295.03ZM79.04 330.84C80.08 322.94 80.87 302.68 75.8 296.71C70.41 290.35 60.88 292.11 53.5 292.12C46.11 292.13 36.83 290.49 29.84 293.39C18.58 298.06 20.27 321.05 21.5 330.84C40.68 330.84 59.86 330.84 79.04 330.84ZM374.92 315.26C375.06 316.99 375.17 318.52 374.63 320.2C373.58 323.52 370.38 326.13 368 328.51C363.07 333.43 357.88 338.33 353.69 343.91C351.89 345.99 350.08 348.08 348.28 350.16C340.36 357.93 333.58 367.67 327.15 376.68C323.72 381.49 320.46 386.46 313.65 384.78C309.85 383.84 307.7 379.88 305.46 377.04C300.62 370.9 295.15 365.31 290.18 359.28C287.35 355.85 285.24 352.32 287.45 347.94C289.69 343.52 294.62 342.26 298.8 344.67C305.38 348.46 310.68 356.16 315.5 361.86C326.76 349.32 338.01 336.78 349.27 324.24C357.7 320.51 364.36 307.5 374.92 315.26ZM504 365.97C505.45 364.68 506.89 363.39 508.34 362.09C518.31 356.64 529.46 331.37 544.08 343.42C545.72 344.77 547.12 346.57 548.07 348.45C551.68 355.57 550.41 366.37 555.5 371.91C562.61 370.96 567.79 364.01 573.24 359.72C576.1 357.47 579.68 355.72 582.19 353.22C583.79 352.72 585.4 352.22 587 351.71C593.67 349.73 599.57 351.29 604.87 355.6C609.49 359.36 612.92 364.98 619.5 365.01C630.12 365.04 638.32 355.34 646.61 350.05C650.54 347.54 654.65 346.62 658.89 344.98C660.31 344.96 661.73 344.93 663.15 344.91C669.15 346.54 673.95 348.72 678.85 352.63C684.86 357.43 690.32 363.24 698.5 363.92C703.68 364.35 709.21 362.7 713.77 360.3C716.45 358.89 719.66 355.75 722.67 355.33C726.8 354.77 729.87 358.59 729.21 362.5C728.41 367.2 721.05 369.92 717.31 371.78C705.74 377.55 693.01 377.73 682.04 370.48C676.06 366.52 671.03 360.2 664 358.2C662 358.24 660 358.28 658 358.33C642.87 363.17 636.02 378.04 617.5 377.16C603.31 376.48 597.13 356.55 585.86 365.93C584.44 366.93 583.03 367.93 581.62 368.92C572.01 374.47 559.26 392.98 546.61 380.9C545.08 379.44 543.75 377.49 542.85 375.59C539.64 368.83 540.98 358.37 536.5 353.05C530.89 355.07 526.73 360.92 522.8 365.28C518.27 370.32 513.08 374.38 508.07 378.82C506.31 379.79 504.54 380.76 502.78 381.73C500 382.39 497.43 383.26 494.5 383.02C476.57 381.53 481.55 356.32 476.5 345.34C470.42 344.33 465.73 348.92 461.55 353.05C451.88 362.62 442.6 374.36 436.91 386.75C432.97 388.37 430.65 388.29 427.05 385.99C426.93 383.99 426.81 382 426.69 380C428.39 376.95 430.08 373.91 431.77 370.86C440.5 358.35 449.84 343.63 463.58 336.07C470.25 332.4 479.85 330.39 485.4 337.12C492.95 346.25 487.97 363.3 495.5 370.72C498.73 370.19 501.83 368.45 504 365.97ZM79.05 350.29C59.82 350.29 40.6 350.29 21.37 350.29C21.37 356.55 21.37 362.81 21.37 369.06C40.6 369.06 59.82 369.06 79.05 369.06C79.05 362.81 79.05 356.55 79.05 350.29ZM21.11 389.09C21.11 519.22 21.11 649.36 21.11 779.5C27.71 777.83 34.3 776.17 40.9 774.5C40.9 646.03 40.9 517.56 40.9 389.09C34.3 389.09 27.71 389.09 21.11 389.09ZM79.31 389.12C72.87 389.12 66.43 389.12 59.98 389.12C59.98 517.53 59.98 645.93 59.98 774.34C66.21 776.06 72.43 777.78 78.65 779.5C80.07 776.19 79.44 772.2 79.45 768.5C79.45 760.83 79.46 753.17 79.46 745.5C79.47 719.17 79.52 692.83 79.46 666.5C79.34 604.83 79.44 543.17 79.45 481.5C79.45 461.83 79.42 442.17 79.46 422.5C79.47 411.5 80.35 400.06 79.31 389.12ZM374.78 470.09C376.15 481.83 357.71 489.87 353.02 499.86C351.63 501.27 350.24 502.69 348.85 504.1C340.62 511.56 333.88 521.86 327.34 530.81C323.9 535.53 320.45 540.73 313.71 538.76C310.16 537.72 308.17 534.16 305.97 531.52C300.99 525.52 295.97 519.54 290.91 513.62C288.05 510.27 285.37 506.6 287.55 502.05C289.73 497.52 295.39 496.68 299.42 499.03C306.22 502.99 309.76 511.38 316.5 515.32C327.66 502.95 338.81 490.58 349.97 478.21C357.15 473.81 366.44 462.05 374.78 470.09ZM504.19 516.14C505.51 515.07 506.82 514 508.14 512.94C516.76 507.15 526.41 495.14 538.27 500.25C550.87 505.68 549.16 524.13 566.5 522.95C568.96 522.78 571.44 522.14 573.78 521.35C576.59 520.39 579.77 519.05 581.89 517.05C583.58 516.06 585.28 515.06 586.98 514.07C598.4 507.97 609.25 493.25 623.5 494.68C639.45 496.27 636.06 511.22 643.04 519.41C647.18 524.28 655.98 518.89 659.14 515.15C660.43 514.36 661.71 513.58 663 512.79C670.89 508.28 677.62 502.74 687.3 506.24C694.65 508.9 699.14 516.94 707.5 517.12C714.07 517.26 718.8 512.07 724.5 511.77C728.1 511.58 730.99 513.77 731.04 517.5C731.13 524.84 714.38 529.54 708.49 529.67C702.67 529.8 696.88 527.7 692.2 524.34C689.07 522.1 685.99 518.21 682.05 517.51C676.91 516.59 665.72 525.19 661.95 528.66C660.96 529.19 659.98 529.72 659 530.25C656.06 531.42 653.23 532.95 650.08 533.52C647.95 533.91 645.81 533.98 643.66 533.65C628.36 531.34 632.1 514.59 623.5 507.01C615.92 506.9 609.63 513.02 603.84 517.36C597.84 521.86 591.09 525.36 585.15 529.82C583.76 530.52 582.36 531.23 580.96 531.93C568.07 535.24 555.73 538.19 545.23 527.27C540.87 522.74 538.98 516.39 534.5 512.11C532.74 511.96 531.46 511.75 529.71 512.25C524.41 513.77 512.45 524.97 508.16 529.1C506.71 530.07 505.26 531.03 503.81 531.99C501.12 533.2 498.47 534.59 495.5 534.97C493.53 535.22 491.53 535.18 489.58 534.78C474.26 531.65 479.45 511.33 471.5 503.28C461.62 503.91 448.84 519.92 442.95 527.45C439.23 532.21 437.6 537.28 430.98 537.84C431.08 537.73 431.19 537.61 431.3 537.5C429.82 536.33 428.35 535.17 426.87 534C426.86 533 426.85 532 426.84 531C428.32 528.38 429.79 525.76 431.27 523.13C433.68 520.88 435.46 517.73 437.6 515.13C444 507.34 451.27 499.67 460.05 494.54C466.58 490.74 474.76 488.81 480.65 494.82C488.11 502.43 484.88 515.82 492.5 522.82C497.09 522.43 501.33 519.76 504.19 516.14ZM375.21 627.23C372.2 635.42 357.87 645.73 352.1 653.9C350.72 655.57 349.34 657.25 347.96 658.92C341.6 664.16 331.93 678.86 326.53 686.03C323.2 690.46 319.91 695.41 313.51 693.08C309.83 691.74 307.76 688.02 305.4 685.12C300.16 678.66 283.5 664.72 287.55 656.04C289.72 651.41 295.46 650.66 299.62 652.87C305.05 655.76 311.2 664.87 315.5 669.59C326.76 657.14 338.02 644.69 349.28 632.24C356.35 628.81 365.22 615.65 373.96 622.5C374.37 624.08 374.79 625.65 375.21 627.23ZM504.23 674.22C505.53 673.12 506.83 672.03 508.13 670.93C517.17 663.79 530.36 641.11 544.25 652.28C545.89 653.6 547.3 655.4 548.27 657.27C551.99 664.41 549.94 674.85 555.5 680.7C563.21 680.06 568.99 671.81 574.65 667.12C576.78 665.36 579.15 663.9 581.23 662.12C583.15 661.33 585.08 660.54 587 659.75C593.22 658.34 598.95 659.52 603.99 663.5C608.96 667.44 612.43 673.58 619.5 673.8C628.87 674.1 636.58 665.09 643.75 660.26C648.66 656.94 653.9 655.44 659.2 653.22C660.52 653.2 661.84 653.19 663.16 653.17C667.67 654.84 671.86 655.66 675.92 658.57C683.58 664.06 689.35 672.03 699.56 672.61C705.22 672.93 710.61 670.78 715.41 667.95C717.62 666.64 719.88 664.35 722.53 663.99C725.74 663.55 727.46 665.05 729.13 667.5C729.59 674.95 722.58 678.21 716.45 680.92C706.05 685.51 694.27 686.33 684.17 680.37C676.58 675.89 669.44 665.33 659.83 666.59C659.53 666.67 659.23 666.74 658.93 666.82C644.55 669.16 636.58 686.71 618.5 685.83C611.84 685.5 606.44 682.26 601.89 677.61C600.28 675.96 598.77 673.91 596.7 672.78C592.92 670.73 588.54 671.76 585.78 674.8C584.19 675.88 582.59 676.97 581 678.05C572.32 684.06 563.41 696.59 551.22 692.33C547.75 691.12 544.87 688.58 543.13 685.35C539.29 678.25 541.87 667.98 536.5 661.99C529.36 663.44 523.88 672.42 518.98 677.48C515.49 681.09 511.05 684.06 507.85 687.81C506.52 688.53 505.2 689.26 503.87 689.99C501.15 690.74 498.37 691.81 495.5 691.75C474.36 691.31 483.63 662.52 475.5 653.25C469.79 653.62 465.34 658 461.25 661.75C454.49 667.94 448.57 675.43 443.58 683.1C440.72 687.49 439.05 692.55 435.23 696.2C431.85 696.59 430.1 696.06 427.09 694.75C426.99 692.5 426.89 690.25 426.79 688C428.49 684.98 430.19 681.96 431.89 678.94C441.01 666.35 449.88 653.29 463.39 644.93C470.11 640.77 479.18 638.68 485.01 645.51C493.03 654.92 487.61 670.07 494.5 678.82C498.69 679.12 501.63 677.55 504.23 674.22ZM805.36 738.32C907.84 730.08 1001.08 804.77 1011.83 907.46C1013.98 927.98 1012.5 948.38 1007.79 968.46C1002.04 993.01 990.23 1015.66 975.44 1035.92C959.18 1058.2 937.45 1075.54 913.6 1089.04C889.19 1102.85 861.38 1110.69 833.5 1112.89C757.36 1118.87 682.59 1074.95 647.81 1007.68C641.84 996.13 636.46 984.04 633.24 971.39C625.39 940.58 625.05 907.42 633.22 876.61C639.65 852.37 652.15 829.75 667.64 810.19C683.55 790.1 702.89 774.17 725.29 761.78C749.84 748.2 777.47 740.56 805.36 738.32ZM75.08 799.5C72.04 796.99 67.56 796.76 63.7 795.73C59.68 794.65 54.74 792.31 50.57 792.28C45.5 792.25 31.43 796.79 26.06 798.5C31.87 810.87 37.69 823.24 43.5 835.61C47.88 835.61 52.25 835.61 56.63 835.61C62.78 823.57 68.93 811.54 75.08 799.5ZM789.95 823.13C789.63 848.1 789.31 873.06 788.99 898.03C769.17 897.84 749.33 897.98 729.5 897.98C721.42 897.98 711.43 896.3 705.31 902.84C703.76 904.49 702.62 906.4 702.02 908.59C700.63 913.7 700.8 932.02 701.61 937.51C703.65 951.33 715.59 950.47 726.5 950.46C741.17 950.43 755.83 950.48 770.5 950.49C776.29 950.49 784.3 949.09 789.5 951.37C790.11 970.71 789.52 990.15 789.56 1009.5C789.57 1017.44 787.89 1027.16 794.32 1033.17C796.4 1035.12 798.88 1036.4 801.64 1037.12C806.94 1038.5 825.28 1038.25 830.99 1037.44C843.18 1035.72 844.57 1024.58 844.55 1014.5C844.5 993.53 843.1 972.12 844.5 951.21C851.53 949.57 859.54 950.51 866.82 950.5C881.07 950.47 895.32 950.53 909.57 950.49C919.48 950.47 931.34 950.29 932.76 937.5C933.67 929.33 934.56 909.55 929.29 903.22C923.31 896.04 912.77 898.01 904.5 898C891.5 897.99 878.5 898 865.5 898C858.58 898 851.25 898.67 844.46 897.5C843.03 879.06 844.3 860.01 844.31 841.5C844.31 833.97 846.1 824.37 841.79 817.71C837.2 810.62 828.96 811.02 821.5 810.98C810.02 810.92 793.12 808.41 789.95 823.13ZM404 1009.76C333.33 1009.73 262.67 1009.69 192 1009.65C196.29 1007.91 202.78 1009 207.5 1009C218.17 1009 228.83 1009 239.5 1009C276.83 1009 314.17 1009 351.5 1009C363.83 1009 376.17 1009 388.5 1009C393.13 1009 399.94 1007.82 404 1009.76ZM614.78 1009C614.85 1009.27 614.91 1009.55 614.98 1009.82C578.65 1009.82 542.33 1009.82 506 1009.81C508.89 1008.34 513.12 1009 516.5 1009C523.5 1009 530.5 1009 537.5 1009C563.26 1009 589.02 1009 614.78 1009Z" fill="#454424" fill-rule="evenodd" stroke="#454424" stroke-width="0.25" stroke-linejoin="round"/>
<path d="M270.88 195.17C272.73 195.18 274.58 195.19 276.43 195.2C276.46 207.85 276.48 220.5 276.5 233.15C292.72 233.08 308.95 233.02 325.17 232.95C327.11 234.36 329.06 235.76 331 237.17C312.83 237.37 294.67 237.57 276.5 237.78C276.5 261.93 276.5 286.09 276.5 310.24C300.5 310.07 324.5 309.89 348.5 309.71C349.73 293.47 348.82 276.8 348.87 260.5C348.89 255.29 347.44 244.45 350 240.21C351.37 240.17 352.74 240.13 354.11 240.09C353.98 263.23 353.86 286.36 353.74 309.5C377.66 309.7 401.58 309.9 425.5 310.1C425.54 286.78 425.58 263.46 425.62 240.14C427.46 240.14 429.3 240.13 431.14 240.13C431.26 263.47 431.38 286.8 431.5 310.14C455.5 310.06 479.5 309.99 503.5 309.91C504.34 303.56 503.94 296.92 503.94 290.5C503.95 280.5 503.95 270.5 503.86 260.5C503.81 255.41 502.44 244.31 505 240.23C506.38 240.19 507.76 240.15 509.14 240.12C508.95 263.24 508.76 286.37 508.57 309.5C514.31 310.8 520.58 310.24 526.5 310.23C536.83 310.21 547.2 310.48 557.5 310.12C565.31 309.86 573.91 311.27 581.46 309.5C581.25 286.37 581.05 263.25 580.85 240.12C581.9 240.16 582.95 240.19 584 240.23C584.47 240.56 585.62 241.19 585.88 241.72C587.29 244.61 586.07 254.84 586.08 258.5C586.09 269.83 586.14 281.17 586.1 292.5C586.08 298.32 585.45 304.48 586.5 310.16C610.5 310.12 634.5 310.08 658.5 310.04C659.07 304.62 658.59 298.98 658.6 293.5C658.62 283.17 658.61 272.83 658.63 262.5C658.65 256.41 660.15 245.45 657.87 240.09C659.97 240.1 662.07 240.11 664.16 240.12C663.91 263.25 663.66 286.37 663.41 309.5C667.24 311.38 680.58 310.16 685.5 310.15C702.17 310.11 718.83 310.28 735.5 310.29C735.5 286.08 735.5 261.86 735.5 237.65C719.67 237.51 703.83 237.37 688 237.23C690 235.76 692.01 234.28 694.01 232.81C708.07 232.71 722.12 232.6 736.18 232.5C736.12 220.06 736.06 207.63 736 195.19C737.72 195.19 739.44 195.19 741.16 195.19C741.27 207.87 741.39 220.55 741.5 233.22C764.33 233.41 787.15 233.59 809.98 233.78C809.98 234.9 809.98 236.03 809.99 237.15C787.16 237.29 764.33 237.42 741.5 237.55C739.29 246.12 740.9 260.21 740.95 269.5C740.99 277.83 740.94 286.17 740.86 294.5C740.8 299.76 740.22 305.3 741.5 310.34C764.32 310.5 787.15 310.66 809.97 310.83C809.97 311.97 809.97 313.11 809.97 314.25C787.14 314.44 764.32 314.63 741.5 314.82C741.5 339.03 741.5 363.24 741.5 387.45C764.31 387.58 787.12 387.7 809.94 387.82C809.94 389.23 809.95 390.63 809.95 392.03C786.95 392.19 763.94 392.34 740.94 392.5C741 416.5 741.06 440.5 741.12 464.5C764.06 464.64 787.01 464.78 809.95 464.91C809.95 466.28 809.96 467.64 809.96 469.01C786.91 469.17 763.86 469.34 740.81 469.5C740.83 493.5 740.86 517.5 740.88 541.5C763.91 541.68 786.95 541.86 809.98 542.04C809.96 543.45 809.94 544.85 809.92 546.26C806.11 547.51 801.94 546.63 797.97 546.69C785.49 546.89 772.99 546.8 760.5 546.8C754.28 546.8 746.9 545.68 740.98 547.5C741.15 571.41 741.33 595.33 741.5 619.24C764.31 619.42 787.11 619.6 809.92 619.78C809.93 621.18 809.95 622.57 809.96 623.96C786.94 624.14 763.92 624.32 740.9 624.5C741 648.5 741.11 672.5 741.21 696.5C764.11 696.9 787.02 697.3 809.92 697.7C809.92 698.84 809.93 699.97 809.94 701.11C786.96 701.24 763.98 701.37 741 701.5C740.9 705.47 741.83 719.44 740.6 722.22C739.95 723.68 737.79 723.85 736.5 724.23C736.17 716.71 735.83 709.19 735.5 701.67C711.5 701.91 687.5 702.15 663.5 702.39C663.43 720.42 663.46 738.46 663.39 756.5C663.36 764.15 665.4 772.77 658.2 777.7C654.8 780.03 640.61 778.68 636 778.62C619.53 778.43 602.95 778.29 586.5 778.68C586.44 802.62 586.38 826.56 586.31 850.5C594.87 850.83 603.44 851.17 612 851.5C611.62 852.62 611.37 854.32 610.31 855.03C608.73 856.11 605.44 855.49 603.6 855.49C597.9 855.48 592.1 855.02 586.42 855.5C586.28 880.33 586.14 905.16 586 929.99C584.6 929.98 583.21 929.98 581.82 929.97C581.71 905.36 581.61 880.75 581.5 856.14C576.01 853.89 567.56 855.45 561.5 855.51C549.49 855.62 537.48 855.62 525.47 855.55C520.03 855.52 513.71 854.45 508.5 855.85C508.37 880.55 508.24 905.24 508.11 929.93C506.73 929.94 505.35 929.95 503.97 929.96C503.86 905.14 503.75 880.32 503.63 855.5C479.46 855.5 455.29 855.5 431.11 855.5C431.03 880.34 430.95 905.19 430.87 930.03C429.28 930.02 427.69 930.02 426.1 930.01C425.98 905.17 425.87 880.34 425.75 855.5C401.83 855.5 377.92 855.5 354 855.5C353.7 880.32 353.41 905.14 353.11 929.96C351.73 929.97 350.35 929.98 348.97 929.99C348.82 905.21 348.66 880.44 348.5 855.66C324.46 855.61 300.42 855.55 276.38 855.5C276.24 880.34 276.1 905.17 275.95 930.01C274.56 929.99 273.17 929.98 271.77 929.97C271.43 905.15 271.08 880.32 270.73 855.5C253.19 855.41 235.64 855.32 218.09 855.23C218.08 853.78 218.08 852.34 218.07 850.9C235.72 850.77 253.38 850.63 271.04 850.5C271.72 834.56 271.04 818.46 271.08 802.5C271.1 794.8 272.5 785.87 270.5 778.52C253.02 778.68 235.53 778.85 218.05 779.01C218.06 777.33 218.07 775.65 218.07 773.96C235.79 773.81 253.5 773.65 271.21 773.5C271.03 749.5 270.85 725.5 270.67 701.5C253.15 701.42 235.63 701.35 218.11 701.27C218.11 699.8 218.1 698.33 218.1 696.86C235.79 696.74 253.48 696.62 271.16 696.5C271.16 672.5 271.16 648.5 271.16 624.5C253.45 624.34 235.75 624.18 218.05 624.01C218.04 622.35 218.04 620.68 218.04 619.01C235.53 619.1 253.01 619.19 270.5 619.28C272.6 612.12 271.16 603.06 271.15 595.5C271.13 585.17 271.1 574.84 271.17 564.5C271.21 558.68 272.04 552.25 270.5 546.71C253.04 546.58 235.57 546.45 218.11 546.32C218.09 544.87 218.07 543.43 218.06 541.99C235.78 541.82 253.51 541.66 271.23 541.5C271.17 517.5 271.11 493.5 271.05 469.5C253.39 469.35 235.72 469.19 218.06 469.04C218.08 467.64 218.09 466.23 218.1 464.83C235.61 464.72 253.12 464.61 270.62 464.5C270.77 440.5 270.91 416.5 271.05 392.5C253.39 392.36 235.74 392.22 218.08 392.08C218.09 390.62 218.1 389.16 218.11 387.7C235.57 387.53 253.04 387.36 270.5 387.2C270.75 363.3 270.99 339.4 271.24 315.5C253.51 315.35 235.79 315.19 218.06 315.04C218.06 313.37 218.05 311.7 218.04 310.03C228.99 311.12 240.48 310.1 251.5 310.12C257.9 310.13 265.32 311.24 271.41 309.5C271.42 285.83 271.43 262.17 271.44 238.5C267.3 237.21 262.91 237.61 258.5 237.63C247.99 237.69 237.51 237.76 227 237.7C224.07 237.69 220.91 237.96 218.11 237.3C218.09 235.86 218.07 234.43 218.06 232.99C235.8 232.83 253.54 232.66 271.28 232.5C271.14 220.06 271.01 207.61 270.88 195.17ZM349.27 324.24C349.01 321.29 348.76 318.34 348.5 315.4C324.5 315.26 300.5 315.12 276.5 314.98C276.5 339.06 276.5 363.14 276.5 387.22C300.5 387.17 324.5 387.11 348.5 387.06C348.43 374.76 348.35 362.46 348.28 350.16C350.08 348.08 351.89 345.99 353.69 343.91C353.63 358.12 353.56 372.32 353.5 386.53C359.36 388.13 366.32 387.26 372.5 387.27C384.17 387.29 395.83 387.25 407.5 387.25C412.42 387.25 423.38 388.67 427.05 385.99C430.65 388.29 432.97 388.37 436.91 386.75C440.73 387.59 444.6 387.17 448.5 387.18C458.49 387.22 468.51 387.11 478.5 387.21C485.63 387.28 497.59 388.73 503.99 386.5C503.59 384.91 503.18 383.32 502.78 381.73C504.54 380.76 506.31 379.79 508.07 378.82C508.21 381.39 508.36 383.95 508.5 386.52C516.65 388.72 526.93 387.13 535.5 387.2C544.83 387.29 554.17 387.31 563.5 387.36C569.27 387.39 575.7 387.94 581.22 386.5C581.36 380.64 581.49 374.78 581.62 368.92C583.03 367.93 584.44 366.93 585.86 365.93C585.99 372.79 586.12 379.64 586.25 386.5C594.93 388.71 605.54 387.27 614.5 387.29C623.16 387.3 631.84 386.98 640.5 387.19C646.46 387.33 652.61 387.66 658.5 386.89C658.33 377.37 658.17 367.85 658 358.33C660 358.28 662 358.24 664 358.2C663.83 367.65 663.67 377.1 663.5 386.55C687.5 386.79 711.5 387.04 735.5 387.29C735.72 363.36 735.94 339.43 736.15 315.5C711.96 315.5 687.76 315.5 663.56 315.5C663.43 325.3 663.29 335.11 663.15 344.91C661.73 344.93 660.31 344.96 658.89 344.98C658.76 335.12 658.63 325.25 658.5 315.39C634.5 315.27 610.5 315.16 586.5 315.05C585.03 323.12 586.25 332.24 586.18 340.5C586.15 344.06 585.24 348.55 587 351.71C585.4 352.22 583.79 352.72 582.19 353.22C581.86 340.64 581.54 328.07 581.21 315.5C556.97 315.33 532.74 315.17 508.5 315C508.45 330.7 508.39 346.4 508.34 362.09C506.89 363.39 505.45 364.68 504 365.97C503.83 349.09 503.67 332.21 503.5 315.33C479.34 315.39 455.18 315.44 431.02 315.5C430.4 328.46 430.69 341.53 430.75 354.5C430.77 359.25 429.47 366.75 431.77 370.86C430.08 373.91 428.39 376.95 426.69 380C426.46 358.5 426.22 337 425.99 315.5C408.97 315.42 391.94 315.34 374.92 315.26C364.36 307.5 357.7 320.51 349.27 324.24ZM348.72 392.19C324.51 392.19 300.3 392.19 276.08 392.19C276.08 416.33 276.08 440.47 276.08 464.61C300.3 464.61 324.51 464.61 348.72 464.61C348.72 440.47 348.72 416.33 348.72 392.19ZM426.13 392.18C401.97 392.18 377.81 392.18 353.64 392.18C353.64 416.32 353.64 440.46 353.64 464.6C377.81 464.6 401.97 464.6 426.13 464.6C426.13 440.46 426.13 416.32 426.13 392.18ZM503.85 392.18C479.51 392.18 455.17 392.18 430.84 392.18C430.84 416.31 430.84 440.45 430.84 464.58C455.17 464.58 479.51 464.58 503.85 464.58C503.85 440.45 503.85 416.31 503.85 392.18ZM581.32 392.19C557.06 392.19 532.81 392.19 508.55 392.19C508.55 416.33 508.55 440.46 508.55 464.59C532.81 464.59 557.06 464.59 581.32 464.59C581.32 440.46 581.32 416.33 581.32 392.19ZM586.12 392.19C586.12 416.32 586.12 440.45 586.12 464.58C610.28 464.58 634.44 464.58 658.61 464.58C658.61 440.45 658.61 416.32 658.61 392.19C634.44 392.19 610.28 392.19 586.12 392.19ZM736.07 392.24C711.88 392.24 687.7 392.24 663.51 392.24C663.51 416.34 663.51 440.45 663.51 464.56C687.7 464.56 711.88 464.56 736.07 464.56C736.07 440.45 736.07 416.34 736.07 392.24ZM349.97 478.21C349.56 475.3 349.15 472.4 348.73 469.5C324.66 469.36 300.58 469.22 276.5 469.08C276.34 493.22 276.18 517.36 276.02 541.5C300.18 541.62 324.34 541.74 348.5 541.86C348.62 529.27 348.73 516.69 348.85 504.1C350.24 502.69 351.63 501.27 353.02 499.86C353.21 513.74 353.41 527.62 353.6 541.5C377.77 541.5 401.93 541.5 426.1 541.5C426.35 539 426.61 536.5 426.87 534C428.35 535.17 429.82 536.33 431.3 537.5C431.19 537.61 431.08 537.73 430.98 537.84C431.15 539.2 431.33 540.56 431.5 541.92C455.5 541.92 479.5 541.92 503.5 541.92C503.6 538.61 503.71 535.3 503.81 531.99C505.26 531.03 506.71 530.07 508.16 529.1C508.27 533.28 508.39 537.45 508.5 541.62C532.73 541.58 556.96 541.54 581.2 541.5C581.12 538.31 581.04 535.12 580.96 531.93C582.36 531.23 583.76 530.52 585.15 529.82C585.6 533.85 586.05 537.87 586.5 541.9C610.5 541.84 634.5 541.78 658.5 541.72C658.67 537.9 658.83 534.07 659 530.25C659.98 529.72 660.96 529.19 661.95 528.66C664.41 531.98 663.36 537.28 663.61 541.5C687.74 541.5 711.86 541.5 735.99 541.5C736.01 517.5 736.03 493.5 736.05 469.5C711.88 469.5 687.71 469.5 663.54 469.5C663.36 483.93 663.18 498.36 663 512.79C661.71 513.58 660.43 514.36 659.14 515.15C658.93 499.89 658.71 484.63 658.5 469.36C634.5 469.35 610.5 469.33 586.5 469.31C586.66 484.23 586.82 499.15 586.98 514.07C585.28 515.06 583.58 516.06 581.89 517.05C581.65 501.2 581.41 485.35 581.17 469.5C556.96 469.5 532.75 469.5 508.54 469.5C508.41 483.98 508.27 498.46 508.14 512.94C506.82 514 505.51 515.07 504.19 516.14C504.14 500.59 504.09 485.05 504.04 469.5C479.62 469.5 455.21 469.5 430.79 469.5C430.95 487.38 431.11 505.26 431.27 523.13C429.79 525.76 428.32 528.38 426.84 531C424.64 526.7 426.33 518.54 426.33 513.5C426.34 498.88 426.63 484.11 426.17 469.5C416.81 467.61 399.79 469.18 389.5 469.14C385.02 469.13 378.44 467.77 374.78 470.09C366.44 462.05 357.15 473.81 349.97 478.21ZM348.74 546.82C324.52 546.82 300.3 546.82 276.08 546.82C276.08 570.95 276.08 595.07 276.08 619.2C300.3 619.2 324.52 619.2 348.74 619.2C348.74 595.07 348.74 570.95 348.74 546.82ZM426.17 547.5C419.05 545.59 401.8 546.7 393.5 546.83C385.17 546.97 376.83 546.86 368.5 546.85C363.55 546.84 358.37 546.37 353.62 547.5C353.62 571.17 353.62 594.83 353.62 618.5C358.78 619.59 364.2 619.13 369.5 619.18C379.85 619.28 390.14 619.05 400.5 619.08C408.57 619.1 418.53 620.73 426.17 618.5C426.17 594.83 426.17 571.17 426.17 547.5ZM503.79 546.84C479.7 546.84 455.6 546.84 431.5 546.84C430.21 552.41 430.85 558.72 430.86 564.5C430.88 574.17 430.87 583.83 430.84 593.5C430.83 601.57 429.34 611.52 431.5 619.16C455.6 619.16 479.7 619.16 503.79 619.16C503.79 595.05 503.79 570.94 503.79 546.84ZM581.31 547.5C571.63 545.33 560.44 546.84 550.5 546.82C542.51 546.81 534.48 547.14 526.5 546.86C520.6 546.66 514.3 546.21 508.53 547.31C508.53 571.27 508.53 595.22 508.53 619.18C532.79 619.18 557.05 619.18 581.31 619.18C581.31 595.29 581.31 571.39 581.31 547.5ZM658.6 546.85C634.43 546.85 610.27 546.85 586.1 546.85C586.1 570.95 586.1 595.04 586.1 619.14C610.27 619.14 634.43 619.14 658.6 619.14C658.6 595.04 658.6 570.95 658.6 546.85ZM736.07 546.86C711.88 546.86 687.68 546.86 663.49 546.86C663.49 570.98 663.49 595.11 663.49 619.23C687.68 619.23 711.88 619.23 736.07 619.23C736.07 595.11 736.07 570.98 736.07 546.86ZM349.28 632.24C349.02 629.56 348.76 626.87 348.5 624.19C324.5 624.13 300.5 624.06 276.5 623.99C276.5 648.29 276.5 672.59 276.5 696.89C300.52 696.76 324.55 696.63 348.57 696.5C348.37 683.97 348.16 671.45 347.96 658.92C349.34 657.25 350.72 655.57 352.1 653.9C354.74 656.83 353.77 662.46 353.65 666.5C353.37 676.36 352.58 686.69 353.66 696.5C359.73 697.59 366.3 696.88 372.5 696.89C384.83 696.9 397.17 696.84 409.5 696.86C414.26 696.86 424.18 698.96 427.09 694.75C430.1 696.06 431.85 696.59 435.23 696.2C457.99 696.35 480.74 696.5 503.5 696.66C503.62 694.43 503.75 692.21 503.87 689.99C505.2 689.26 506.52 688.53 507.85 687.81C508.06 690.71 508.28 693.61 508.5 696.51C532.5 696.65 556.5 696.78 580.5 696.91C582.31 691.52 581.76 683.71 581 678.05C582.59 676.97 584.19 675.88 585.78 674.8C585.95 682.03 586.11 689.27 586.28 696.5C610.35 696.5 634.42 696.5 658.49 696.5C658.64 686.61 658.78 676.71 658.93 666.82C659.23 666.74 659.53 666.67 659.83 666.59C661.02 667.23 662.22 667.86 663.41 668.5C663.5 677.83 663.6 687.17 663.69 696.5C687.72 696.5 711.74 696.5 735.76 696.5C735.9 672.5 736.05 648.5 736.19 624.5C711.96 624.45 687.73 624.41 663.5 624.36C663.39 633.96 663.27 643.57 663.16 653.17C661.84 653.19 660.52 653.2 659.2 653.22C658.97 643.56 658.73 633.9 658.5 624.24C634.5 624.24 610.5 624.24 586.5 624.24C585.4 632.05 585.97 640.58 585.99 648.5C586 652.11 585.27 656.51 587 659.75C585.08 660.54 583.15 661.33 581.23 662.12C581.21 649.58 581.19 637.04 581.17 624.5C556.94 624.48 532.72 624.46 508.5 624.45C508.38 639.94 508.25 655.44 508.13 670.93C506.83 672.03 505.53 673.12 504.23 674.22C503.99 657.48 503.74 640.75 503.5 624.01C479.25 624.17 455 624.34 430.75 624.5C430.74 637.83 430.65 651.18 430.78 664.5C430.82 668.7 429.5 675.67 431.89 678.94C430.19 681.96 428.49 684.98 426.79 688C426.6 666.83 426.41 645.67 426.22 624.5C409.64 624.27 393.07 624.04 376.5 623.81C376.07 624.95 375.64 626.09 375.21 627.23C374.79 625.65 374.37 624.08 373.96 622.5C365.22 615.65 356.35 628.81 349.28 632.24ZM348.77 701.58C324.54 701.58 300.31 701.58 276.08 701.58C276.08 725.75 276.08 749.93 276.08 774.11C300.31 774.11 324.54 774.11 348.77 774.11C348.77 749.93 348.77 725.75 348.77 701.58ZM426.11 701.55C401.91 701.55 377.72 701.55 353.52 701.55C353.52 725.74 353.52 749.93 353.52 774.12C377.72 774.12 401.91 774.12 426.11 774.12C426.11 749.93 426.11 725.74 426.11 701.55ZM503.83 701.58C479.49 701.58 455.16 701.58 430.82 701.58C430.82 725.76 430.82 749.95 430.82 774.13C455.16 774.13 479.49 774.13 503.83 774.13C503.83 749.95 503.83 725.76 503.83 701.58ZM581.36 702.5C576.22 700.82 570.01 701.56 564.5 701.54C553.45 701.49 542.39 701.68 531.34 701.59C524.83 701.53 514.41 700.18 508.48 702.03C508.48 726.06 508.48 750.09 508.48 774.12C532.77 774.12 557.06 774.12 581.36 774.12C581.36 750.25 581.36 726.37 581.36 702.5ZM658.61 701.55C634.74 701.55 610.87 701.55 587 701.55C584.78 706.86 586.07 717.41 586.06 723.5C586.06 734.5 586.11 745.5 586.09 756.5C586.08 762.3 585.43 768.48 586.5 774.13C610.54 774.13 634.57 774.13 658.61 774.13C658.61 749.94 658.61 725.75 658.61 701.55ZM348.77 778.73C324.54 778.73 300.31 778.73 276.08 778.73C276.08 802.76 276.08 826.79 276.08 850.82C300.31 850.82 324.54 850.82 348.77 850.82C348.77 826.79 348.77 802.76 348.77 778.73ZM426.16 778.67C401.96 778.67 377.76 778.67 353.56 778.67C353.56 802.71 353.56 826.76 353.56 850.8C377.76 850.8 401.96 850.8 426.16 850.8C426.16 826.76 426.16 802.71 426.16 778.67ZM503.84 778.65C479.72 778.65 455.6 778.65 431.48 778.65C429.4 786.16 430.89 795.6 430.88 803.5C430.87 819.25 430.16 835.1 430.82 850.83C455.16 850.83 479.5 850.83 503.84 850.83C503.84 826.77 503.84 802.71 503.84 778.65ZM580.52 778.68C556.49 778.68 532.45 778.68 508.42 778.68C508.42 802.73 508.42 826.78 508.42 850.83C532.69 850.83 556.96 850.83 581.23 850.83C581.96 834.78 581.31 818.57 581.32 802.5C581.32 795.05 582.81 785.63 580.52 778.68ZM789.95 823.13C790.9 829.01 790.32 835.48 790.33 841.5C790.34 853.83 790.32 866.17 790.34 878.5C790.34 881.72 791.17 895.39 790.06 897.43C789.86 897.79 789.26 897.72 788.99 898.03C789.31 873.06 789.63 848.1 789.95 823.13Z" fill="#d3cdb7" fill-rule="evenodd" stroke="#d3cdb7" stroke-width="0.25" stroke-linejoin="round"/>
<path d="M79.04 330.84C59.86 330.84 40.68 330.84 21.5 330.84C20.27 321.05 18.58 298.06 29.84 293.39C36.83 290.49 46.11 292.13 53.5 292.12C60.88 292.11 70.41 290.35 75.8 296.71C80.87 302.68 80.08 322.94 79.04 330.84ZM75.08 799.5C68.93 811.54 62.78 823.57 56.63 835.61C52.25 835.61 47.88 835.61 43.5 835.61C37.69 823.24 31.87 810.87 26.06 798.5C31.43 796.79 45.5 792.25 50.57 792.28C54.74 792.31 59.68 794.65 63.7 795.73C67.56 796.76 72.04 796.99 75.08 799.5Z" fill="#c87632" fill-rule="evenodd" stroke="#c87632" stroke-width="0.25" stroke-linejoin="round"/>
<path d="M874.02 160.17C877.24 161.18 876 165.25 876 168.5C876 176.17 876 183.83 876 191.5C876 224.5 876 257.5 876 290.5C876 384.5 876 478.5 876 572.5C876 603.83 876 635.17 876 666.5C876 682.5 876.98 698.87 875.83 714.82C875.28 714.54 874.73 714.27 874.18 714C876.38 684.29 873.56 654.29 874.42 624.5C875.15 599.19 874.25 573.85 874.38 548.5C874.61 500.2 874.61 451.84 874.46 403.5C874.29 350.84 874.3 298.17 874.47 245.5C874.52 227.83 874.72 210.17 874.45 192.5C874.29 181.73 875.05 170.91 874.02 160.17ZM96.97 295.03C97.82 295.68 98.66 296.34 99.5 297C100.49 301.96 100 307.39 100 312.5C100 321.17 100 329.83 100 338.5C100 365.83 100 393.17 100 420.5C100 507.17 100 593.83 100 680.5C100 710.17 100 739.83 100 769.5C100 776.5 100 783.5 100 790.5C100 793.93 100.12 797.11 96.9 798.78C98.78 791.92 98.58 785.65 98.82 778.5C99.28 764.54 99.17 750.46 98.76 736.5C98.36 723.19 98.79 709.81 98.99 696.5C99.33 673.84 98.82 651.16 98.75 628.5C98.51 552.17 99.02 475.84 98.74 399.5C98.65 377.17 98.84 354.83 98.77 332.5C98.73 320.04 100.14 307.11 96.97 295.03ZM85.76 821.95C85.5 824.02 85.42 827.06 84.47 828.97C83.94 830.04 82.65 830.52 82.19 831.69C81.86 832.51 82.06 833.46 81.81 834.31C81.32 836.03 79.94 837.15 79.19 838.69C77.55 842.03 76.8 846.16 74.84 849.34C73.49 851.55 71.71 853.74 70.53 856.03C68.9 859.21 67.41 864.92 63.92 865.78C71.2 851.17 78.48 836.56 85.76 821.95ZM1040.05 889C1044.25 892.06 1043.28 901.61 1044.19 906.31C1046.2 916.74 1045.68 935.98 1044.03 946.53C1043.73 948.48 1044.27 950.52 1043.97 952.47C1043.42 955.98 1042.67 959.84 1041.81 963.31C1041.52 964.51 1040.48 965.49 1040.19 966.69C1039.22 970.6 1039.24 974.74 1036.94 978C1037.45 971.78 1039.62 965.61 1040.71 959.43C1041.04 957.57 1041.03 953.52 1042.27 952.01C1042.8 951.36 1043.66 951.07 1044.27 950.5C1042.56 948.95 1043.46 950.92 1042.27 949.31C1041.47 948.24 1042.83 946.56 1042.97 945.47C1043.21 943.55 1042.06 942.25 1042.06 940.5C1042.06 938.27 1043 935.92 1043 933.5C1043 918.46 1042.48 903.86 1040.05 889Z" fill="#ffffff" fill-rule="evenodd" stroke="#ffffff" stroke-width="0.25" stroke-linejoin="round"/>
</svg>